<?xml version="1.0" encoding="utf-8"?>
<!-- Generator: Adobe Illustrator 20.0.0, SVG Export Plug-In . SVG Version: 6.00 Build 0)  -->
<svg version="1.1" id="Layer_1" xmlns="http://www.w3.org/2000/svg" xmlns:xlink="http://www.w3.org/1999/xlink" x="0px" y="0px"
	 viewBox="0 0 60 60" style="enable-background:new 0 0 60 60;" xml:space="preserve">
<g>
	<path d="M12.6,16.2L10.2,5.4h2.3l0.8,4.6c0.2,1.1,0.4,2.5,0.6,3.7h0c0.1-1.3,0.3-2.6,0.5-3.8l0.7-4.6h2.3L15,16.2H12.6z"/>
	<path d="M22.9,11.5h-2.5v2.9h2.8v1.8h-4.9V5.4H23v1.8h-2.6v2.5h2.5V11.5z"/>
	<path d="M24.6,5.6c0.7-0.1,1.5-0.2,2.3-0.2c1.1,0,2.2,0.2,2.9,0.8c0.7,0.6,0.8,1.3,0.8,2.2c0,1.1-0.6,2.2-1.7,2.7v0
		c0.7,0.3,1.1,1,1.3,2.1c0.2,1.2,0.5,2.5,0.7,2.9h-2.2c-0.1-0.3-0.4-1.4-0.5-2.6c-0.2-1.3-0.5-1.7-1.2-1.7h-0.3v4.3h-2.1V5.6z
		 M26.7,10.3h0.4c0.9,0,1.4-0.7,1.4-1.7c0-0.9-0.4-1.6-1.3-1.6c-0.2,0-0.4,0-0.5,0.1V10.3z"/>
	<path d="M31.9,14.1c0.4,0.2,1.2,0.4,1.8,0.4c1,0,1.5-0.5,1.5-1.2c0-0.8-0.5-1.2-1.4-1.8c-1.5-0.9-2-2-2-3c0-1.7,1.1-3.2,3.4-3.2
		c0.7,0,1.4,0.2,1.7,0.4l-0.3,1.8c-0.3-0.2-0.8-0.4-1.4-0.4c-0.9,0-1.3,0.5-1.3,1.1c0,0.6,0.3,1,1.5,1.7c1.4,0.9,1.9,1.9,1.9,3.1
		c0,2-1.5,3.3-3.6,3.3c-0.9,0-1.7-0.2-2.1-0.4L31.9,14.1z"/>
	<path d="M43,11.5h-2.5v2.9h2.8v1.8h-4.9V5.4h4.7v1.8h-2.6v2.5H43V11.5z"/>
	<path d="M44.5,14.1c0.4,0.2,1.2,0.4,1.8,0.4c1,0,1.5-0.5,1.5-1.2c0-0.8-0.5-1.2-1.4-1.8c-1.5-0.9-2-2-2-3c0-1.7,1.1-3.2,3.4-3.2
		c0.7,0,1.4,0.2,1.7,0.4l-0.3,1.8c-0.3-0.2-0.8-0.4-1.4-0.4c-0.9,0-1.3,0.5-1.3,1.1c0,0.6,0.3,1,1.5,1.7c1.4,0.9,1.9,1.9,1.9,3.1
		c0,2-1.5,3.3-3.6,3.3c-0.9,0-1.7-0.2-2.1-0.4L44.5,14.1z"/>
	<path d="M12.3,26.6h-1.9v-1.9h5.9v1.9h-1.9v8.8h-2.1V26.6z"/>
	<path d="M23.5,29.8c0,4.1-1.4,5.7-3.5,5.7c-2.4,0-3.4-2.6-3.4-5.5c0-2.9,1.2-5.5,3.5-5.5C22.8,24.5,23.5,27.4,23.5,29.8z M18.8,30
		c0,2.4,0.5,3.7,1.3,3.7c0.9,0,1.2-1.6,1.2-3.8c0-1.9-0.3-3.6-1.2-3.6C19.3,26.3,18.8,27.7,18.8,30z"/>
	<path d="M27.4,24.6h2.1v9h2.8v1.8h-4.9V24.6z"/>
	<path d="M35.6,24.6v10.8h-2.1V24.6H35.6z"/>
	<path d="M38.9,35.4l-2.4-10.8h2.3l0.8,4.6c0.2,1.1,0.4,2.5,0.6,3.7h0c0.1-1.3,0.3-2.6,0.5-3.8l0.7-4.6h2.3l-2.5,10.8H38.9z"/>
	<path d="M49.2,30.7h-2.5v2.9h2.8v1.8h-4.9V24.6h4.7v1.8h-2.6v2.5h2.5V30.7z"/>
	<path d="M11.1,44c0.6-0.1,1.5-0.2,2.4-0.2c1,0,2,0.1,2.7,0.8c0.6,0.5,0.8,1.2,0.8,1.9c0,1-0.5,1.9-1.6,2.3v0.1
		c1.2,0.4,1.9,1.4,1.9,2.6c0,0.9-0.3,1.6-0.8,2.1c-0.6,0.7-1.7,1.1-3.5,1.1c-0.8,0-1.5,0-1.9-0.1V44z M13.2,48.2h0.4
		c0.8,0,1.3-0.6,1.3-1.5c0-0.8-0.4-1.4-1.2-1.4c-0.2,0-0.4,0-0.5,0.1V48.2z M13.2,53c0.1,0,0.3,0,0.5,0c0.8,0,1.5-0.5,1.5-1.6
		c0-1.1-0.7-1.6-1.6-1.6h-0.4V53z"/>
	<path d="M20,54.6v-4.1l-2.4-6.6h2.2l0.7,2.6c0.2,0.7,0.4,1.5,0.6,2.3h0c0.1-0.8,0.3-1.6,0.5-2.3l0.6-2.5h2.2l-2.4,6.6v4.2H20z"/>
</g>
</svg>
